<?xml version="1.0" encoding="UTF-8" standalone="no"?>
<svg
   sodipodi:docname="ring-mono.svg"
   id="svg479"
   version="1.1"
   height="470"
   width="470"
   inkscape:version="1.2.1 (9c6d41e, 2022-07-14)"
   xmlns:inkscape="http://www.inkscape.org/namespaces/inkscape"
   xmlns:sodipodi="http://sodipodi.sourceforge.net/DTD/sodipodi-0.dtd"
   xmlns="http://www.w3.org/2000/svg"
   xmlns:svg="http://www.w3.org/2000/svg">
  <sodipodi:namedview
     id="namedview481"
     pagecolor="#ffffff"
     bordercolor="#000000"
     borderopacity="0.25"
     inkscape:showpageshadow="2"
     inkscape:pageopacity="0.0"
     inkscape:pagecheckerboard="0"
     inkscape:deskcolor="#d1d1d1"
     showgrid="false"
     inkscape:zoom="0.50212766"
     inkscape:cx="235"
     inkscape:cy="235"
     inkscape:window-width="1309"
     inkscape:window-height="456"
     inkscape:window-x="0"
     inkscape:window-y="38"
     inkscape:window-maximized="0"
     inkscape:current-layer="svg479" />
  <defs
     id="defs462">
    <clipPath
       id="clip1">
      <path
         id="svg_1"
         d="m144,54l504,0l0,504l-504,0l0,-504zm0,0" />
    </clipPath>
  </defs>
  <path
     id="svg_4"
     fill-rule="evenodd"
     fill="#7030a0"
     d="m 262.585,2 c 82.76172,0 156.10157,53.28125 181.67188,131.98828 l -58.13281,18.89063 C 368.73735,99.35938 318.85453,63.12109 262.585,63.12109 Z m 0,0"
     style="fill:#ffffff;fill-opacity:1" />
  <path
     id="svg_5"
     fill-rule="evenodd"
     fill="#0070c0"
     d="m 460.91703,185.25 c 25.57032,78.69922 -2.44921,164.92188 -69.40234,213.57031 L 355.585,349.35938 c 45.53125,-33.07032 64.58203,-91.71094 47.19141,-145.21875 z m 0,0"
     style="fill:#ffffff;fill-opacity:1" />
  <path
     id="svg_6"
     fill-rule="evenodd"
     fill="#00b050"
     d="m 347.91703,430.48828 c -66.94921,48.64844 -157.60937,48.64844 -224.5625,0 l 35.92969,-49.44922 c 45.53125,33.08203 107.1836,33.08203 152.70313,0 z m 0,0"
     style="fill:#ffffff;fill-opacity:1" />
  <path
     id="svg_7"
     fill-rule="evenodd"
     fill="#ffc000"
     d="M 79.756877,398.82031 C 12.807657,350.17188 -15.215783,263.94922 10.366247,185.25 l 58.12891,18.89063 c -17.39063,53.50781 1.66016,112.14843 47.191413,145.21875 z m 0,0"
     style="fill:#ffffff;fill-opacity:1" />
  <path
     id="svg_8"
     fill-rule="evenodd"
     fill="#c00000"
     d="M 27.014687,133.98828 C 52.584997,55.28125 125.93657,2 208.68657,2 v 61.12109 c -56.26954,0 -106.14063,36.23829 -123.531253,89.75782 z m 0,0"
     style="fill:#ffffff;fill-opacity:1" />
</svg>
